<?xml version="1.0" encoding="UTF-8"?>
<svg id="Layer_1" data-name="Layer 1" xmlns="http://www.w3.org/2000/svg" viewBox="0 0 140 140">
  <defs>
    <style>
      .cls-1 {
        fill: none;
        stroke: #fff;
        stroke-miterlimit: 10;
      }

      .cls-2 {
        fill: #fff;
        stroke-width: 0px;
      }
    </style>
  </defs>
  <path class="cls-2" d="M132.17,60.24l-.4,11.81-59.74.78-7.14.45v-.22s-11.01-8.4-11.01-8.4l2.15-34.2c.11-1.69,1.45-3.03,3.14-3.14l45.89-2.84s17.15,5.37,19.4,5.97c2.25.61,1.91,2.95,1.91,2.95l-10.66-.52v24.25l16.46,3.11Z"/>
  <g>
    <path class="cls-1" d="M2.9,45.17v18.01h1.39v5.84h3.2s.09,10.79,5.8,11.14,7.27-6.75,7.27-6.75l28.75,26.41v8.23h3.09s1.56,9.09,10.05,9.09,11.55-6.32,11.58-11.17h33.11s.87,4.5,7.1,4.33,10.05-4.85,10.74-8.83h7.1l3.72-2.77v-15.67h-3.15v-1.27h2.31v-21.36l-1.39-5.43,3.09-1.39.42-15.36c.04-1.48-.97-2.77-2.41-3.1l-4.68-1.06-1.04-3.46-23.44-7.74-48.84,2.19s-3.12.46-3.46,2.31-1.04,17.09-1.04,17.09l-22.17-6.24v-3.7H9.8v10.65H2.9Z"/>
    <polygon class="cls-1" points="126.86 35.69 131.2 58.16 128.18 53.65 123.37 53.53 118.82 47.4 118.82 35.69 126.86 35.69"/>
    <path class="cls-1" d="M130.25,35.79l1.92,10.05h3.59v-7.13c-.06-1.32-1.08-2.39-2.4-2.52l-3.11-.4Z"/>
  </g>
</svg>