<?xml version="1.0" encoding="UTF-8"?>
<svg id="Layer_1" data-name="Layer 1" xmlns="http://www.w3.org/2000/svg" viewBox="0 0 140 140">
  <defs>
    <style>
      .cls-1 {
        fill: none;
        stroke: #fff;
        stroke-miterlimit: 10;
      }

      .cls-2 {
        fill: #fff;
        stroke-width: 0px;
      }
    </style>
  </defs>
  <path class="cls-2" d="M53.88,64.66l11,8.4.61,13.86h5.72v1.73l60.27-8.23.69-20.18-16.45-3.12v-24.25l10.65.52s.35-2.34-1.91-2.94-19.4-5.98-19.4-5.98l-45.89,2.85c-1.69.1-3.03,1.45-3.14,3.14l-2.15,34.2Z"/>
  <path class="cls-2" d="M56.03,76.43l-.07,1.44-2.02-.09,1.6,1.71,4.48.21s1.68,1.04,2.81,3.26,2.78,4.99,3.96,6.1l-.11,2.26s2.48,2.9,3.95,3.21l2.36-.76,15.9-1.08,6.99-.64.31-6.62-1.94-.81.71-1.41s-1.65-1.57-.53-1.42,1.59.75,1.59.75l1.84.86,4.11-.29-1.13-1.16,2.02.05.99,1.01,1.98-.15,5.92,5.42.69-1.03,1.23,1.16-.1,2.11,15.36-1.7-1.08-2.61s1.17.34,1.87-.49,1.09-1.1,1.09-1.1l-2.74.09-1.59-.82-8.11-11.82-2.03.55-.49-.67.53-.34-2.31-1.33-3.09,1.15s-.79.97-2.85.8-4.69.5-4.69.5l-7.09-3.65-22.62,2.19-3.09,3.82-1.74,1.29-8.27,1.13-2.53-1.34-2.09.26Z"/>
  <g>
    <path class="cls-1" d="M2.9,45.17v18.01h1.39v5.84h3.2s.09,10.79,5.8,11.14,7.27-6.75,7.27-6.75l28.75,26.41v8.23h3.09s1.56,9.09,10.05,9.09,11.55-6.32,11.58-11.17h33.11s.87,4.5,7.1,4.33,10.05-4.85,10.74-8.83h7.1l3.72-2.77v-15.67h-3.15v-1.27h2.31v-21.36l-1.39-5.43,3.09-1.39.42-15.36c.04-1.48-.97-2.77-2.41-3.1l-4.68-1.06-1.04-3.46-23.44-7.74-48.84,2.19s-3.12.46-3.46,2.31-1.04,17.09-1.04,17.09l-22.17-6.24v-3.7H9.8v10.65H2.9Z"/>
    <polygon class="cls-1" points="126.86 35.69 131.2 58.16 128.18 53.65 123.37 53.53 118.82 47.4 118.82 35.69 126.86 35.69"/>
    <path class="cls-1" d="M130.25,35.79l1.92,10.05h3.59v-7.13c-.06-1.32-1.08-2.39-2.4-2.52l-3.11-.4Z"/>
  </g>
</svg>